<?xml version="1.0" standalone="no"?>
<svg viewBox="0 0 200 200" xmlns="http://www.w3.org/2000/svg">
  <path fill="#10B981" d="M33.7,-51.4C47.9,-50.1,66.7,-49.7,70.7,-41.3C74.8,-32.9,64.1,-16.4,63.5,-0.4C62.8,15.6,72,31.3,69.4,42.2C66.8,53,52.2,59.1,38.6,61.6C25.1,64.2,12.5,63.2,-1.6,65.9C-15.6,68.6,-31.3,74.9,-44.1,72C-56.9,69,-66.8,56.7,-69.9,43.1C-72.9,29.6,-69,14.8,-68.3,0.4C-67.7,-14,-70.3,-28.1,-67.1,-41.3C-63.9,-54.6,-54.9,-67,-42.7,-69.5C-30.6,-71.9,-15.3,-64.5,-2.8,-59.6C9.7,-54.8,19.4,-52.7,33.7,-51.4Z" transform="translate(100 100)" />
</svg>
